<?xml version="1.0" encoding="utf-8"?>
<!-- Generator: Adobe Illustrator 19.0.0, SVG Export Plug-In . SVG Version: 6.00 Build 0)  -->
<svg version="1.1" id="Layer_1" xmlns="http://www.w3.org/2000/svg" xmlns:xlink="http://www.w3.org/1999/xlink" x="0px" y="0px"
	 viewBox="0 0 16 16" style="enable-background:new 0 0 16 16;" xml:space="preserve">
<g id="XMLID_2_">
	<path id="XMLID_5_" d="M6.4,4.5C6.2,5.5,5.7,7.3,5.3,8.7h2.2C7.2,7.7,6.6,5.5,6.4,4.5L6.4,4.5z"/>
	<path id="XMLID_11_" d="M0,0v16h16V0H0z M10.2,13H8.7c-0.1,0-0.1,0-0.1-0.1l-0.7-2.7H5l-0.7,2.7c0,0.1,0,0.1-0.1,0.1H2.8
		c-0.1,0-0.1,0-0.1-0.1l2.6-9c0-0.2,0.1-0.3,0.1-0.8C5.3,3,5.4,3,5.4,3h1.9c0.1,0,0.1,0,0.1,0.1l2.9,9.8C10.3,13,10.3,13,10.2,13z
		 M12.9,12.9c0,0.1,0,0.1-0.1,0.1h-1.5c-0.1,0-0.1,0-0.1-0.1V6.1h0c0-0.1,0-0.1,0.1-0.1h1.5c0.1,0,0.1,0,0.1,0.1V12.9z M12,5
		c-0.6,0-1-0.4-1-1c0-0.6,0.4-1,1-1c0.6,0,1,0.4,1,1C13,4.6,12.6,5,12,5z"/>
</g>
</svg>
