<?xml version="1.0" encoding="utf-8"?>
<!-- Generator: Adobe Illustrator 19.0.0, SVG Export Plug-In . SVG Version: 6.00 Build 0)  -->
<svg version="1.1" xmlns="http://www.w3.org/2000/svg" xmlns:xlink="http://www.w3.org/1999/xlink" x="0px" y="0px"
	 viewBox="0 0 16 16" style="enable-background:new 0 0 16 16;" xml:space="preserve">
<style type="text/css">
	.st0{display:none;opacity:0.33;}
	.st1{display:inline;}
</style>
<g id="Layer_1" class="st0">
	<path id="XMLID_1_" class="st1" d="M3.6,10C4.2,9.8,4.8,9.9,5.3,10V3.6c0-0.4,0.3-0.8,0.7-0.9L13.9,1c0,0,0,0,0,0c0,0,0.1,0,0.1,0
		c0,0,0.1,0,0.1,0h0c0,0,0,0,0,0c0,0,0.1,0,0.1,0c0,0,0.1,0,0.1,0c0,0,0.1,0,0.1,0c0,0,0.1,0,0.1,0c0,0,0,0,0.1,0c0,0,0,0,0.1,0.1
		c0,0,0,0,0.1,0.1c0,0,0,0,0.1,0.1c0,0,0,0,0.1,0.1c0,0,0,0.1,0.1,0.1c0,0,0,0,0,0.1c0,0,0,0.1,0,0.1c0,0,0,0,0,0v0c0,0,0,0.1,0,0.1
		c0,0,0,0.1,0,0.1v0v8.5c0,0.1,0,0.1,0,0.2c0,1.2-1.1,2.3-2.5,2.6c-1.7,0.4-3.2-0.5-3.5-1.8c-0.3-1.4,0.8-2.8,2.5-3.1
		c0.6-0.1,1.2-0.1,1.7,0.1V3.1L7.2,4.3v7.8c0,0.1,0,0.1,0,0.2c0,1.2-1.1,2.3-2.5,2.6c-1.7,0.4-3.2-0.5-3.5-1.8
		C0.8,11.7,2,10.3,3.6,10z"/>
</g>
<g id="Layer_2">
	<path id="XMLID_8_" d="M5,3L5,3l0,7.2C4.7,10.1,4.3,10,4,10c-1.7,0-3,1.1-3,2.5C1,13.9,2.3,15,4,15s3-1.1,3-2.5h0V6.1l6-1.2v4.3
		C12.7,9.1,12.4,9,12,9c-1.7,0-3,1.1-3,2.5c0,1.4,1.3,2.5,3,2.5s3-1.1,3-2.5V3V1L5,3z"/>
</g>
</svg>
