<?xml version="1.0" encoding="utf-8"?>
<!-- Generator: Adobe Illustrator 19.0.0, SVG Export Plug-In . SVG Version: 6.00 Build 0)  -->
<svg version="1.1" id="Layer_1" xmlns="http://www.w3.org/2000/svg" xmlns:xlink="http://www.w3.org/1999/xlink" x="0px" y="0px"
	 viewBox="0 0 16 16" style="enable-background:new 0 0 16 16;" xml:space="preserve">
<path d="M15.7,7.3l-7-7c-0.4-0.4-1-0.4-1.4,0L5.6,1.9l1.2,1.2C7.1,3.1,7.3,3,7.5,3C8.3,3,9,3.7,9,4.5c0,0.2-0.1,0.4-0.1,0.6l0,0l2,2
	C11.1,7.1,11.3,7,11.5,7C12.3,7,13,7.7,13,8.5S12.3,10,11.5,10S10,9.3,10,8.5c0-0.2,0.1-0.4,0.1-0.6l-2-2l0,0c0,0-0.1,0-0.1,0.1v4.2
	c0.6,0.2,1,0.8,1,1.4C9,12.3,8.3,13,7.5,13S6,12.3,6,11.5c0-0.7,0.4-1.2,1-1.4V5.9C6.4,5.7,6,5.2,6,4.5c0-0.2,0.1-0.4,0.1-0.6
	L4.9,2.6L0.3,7.3c-0.4,0.4-0.4,1,0,1.4l7,7c0.4,0.4,1,0.4,1.4,0l7-7C16.1,8.3,16.1,7.7,15.7,7.3z"/>
</svg>
