<?xml version="1.0" encoding="utf-8"?>
<!-- Generator: Adobe Illustrator 19.0.0, SVG Export Plug-In . SVG Version: 6.00 Build 0)  -->
<svg version="1.1" id="Layer_1" xmlns="http://www.w3.org/2000/svg" xmlns:xlink="http://www.w3.org/1999/xlink" x="0px" y="0px"
	 viewBox="0 0 16 16" style="enable-background:new 0 0 16 16;" xml:space="preserve">
<g>
	<path id="XMLID_1_" d="M15.6,7.3l-7-7c-0.5-0.5-1-0.5-1.5,0L5.8,1.7l1.8,1.8c0.5-0.1,0.9,0,1.3,0.3c0.3,0.3,0.5,0.8,0.2,1.3L11,7
		c0.5-0.1,0.9,0,1.3,0.3c0.5,0.5,0.5,1.3,0,1.7c-0.5,0.5-1.3,0.5-1.7,0c-0.3-0.5-0.5-0.9-0.2-1.4L8.6,5.9v4.3
		c0.1,0.1,0.2,0.1,0.3,0.2c0.5,0.5,0.5,1.3,0,1.7c-0.5,0.5-1.3,0.5-1.7,0s-0.5-1.3,0-1.7c0.1-0.1,0.2-0.2,0.3-0.2V5.9
		C7.4,5.8,7.3,5.7,7.2,5.6C6.9,5.3,6.7,4.7,6.9,4.2L5.1,2.5L0.3,7.2c-0.5,0.5-0.5,1,0,1.5l7,7c0.5,0.5,1,0.5,1.5,0l7-7
		C16.1,8.3,16.1,7.7,15.6,7.3z"/>
</g>
</svg>
