<?xml version="1.0" encoding="utf-8"?>
<!-- Generator: Adobe Illustrator 19.2.1, SVG Export Plug-In . SVG Version: 6.00 Build 0)  -->
<svg version="1.1" id="Layer_1" xmlns="http://www.w3.org/2000/svg" xmlns:xlink="http://www.w3.org/1999/xlink" x="0px" y="0px"
	 viewBox="0 0 16 16" enable-background="new 0 0 16 16" xml:space="preserve">
<g>
	<path d="M5.9,5C6.4,5,7,5.2,7.4,5.7C7.7,5.9,7.8,6.2,8,6.5c0.3-0.6,0.7-1.1,1.2-1.3c0.6-0.3,1.3-0.3,1.9,0c0.5,0.2,1,0.7,1.4,1.1
		c0.3,0.4,0.6,0.8,1,1.1C13.6,7.7,13.8,7.9,14,8c0.3,0.1,0.6,0,0.8-0.3c0.2-0.3,0.2-0.5,0-0.8c-0.1-0.1-0.4-0.1-0.5,0.1
		c-0.1,0.2,0,0.4,0,0.5C14.2,7.3,14,7.1,14,6.8c0-0.3,0.2-0.6,0.4-0.8c0.5-0.2,1,0,1.3,0.5C16,7,16,7.5,16,8
		c-0.1,0.5-0.3,1.1-0.6,1.4c-0.5,0.5-1.1,0.6-1.7,0.6c-0.6,0-1.1-0.2-1.7-0.5C11,9.1,10.2,8.6,9.3,8.3C9,8.1,8.7,8,8.3,8
		C8.1,8,7.8,8,7.6,8C7.3,8,7,8.1,6.7,8.3C5.8,8.6,4.9,9.1,4,9.6c-0.8,0.4-1.6,0.6-2.4,0.3C1.1,9.8,0.7,9.5,0.4,9.1
		C0.1,8.7,0,8.1,0,7.6c0-0.5,0-0.8,0.3-1.2c0.2-0.4,0.6-0.5,1-0.5c0.2,0,0.5,0.1,0.6,0.4C2,6.5,2,6.8,1.9,7C1.9,7.2,1.8,7.4,1.6,7.5
		c0.1-0.1,0.1-0.3,0-0.5C1.6,6.8,1.3,6.8,1.2,6.9C1,7.2,1,7.3,1.1,7.5C1.2,7.8,1.5,8,1.7,8c0.4,0,0.7-0.2,0.9-0.5
		c0.5-0.6,1-1.3,1.6-1.8C4.7,5.3,5.3,5,5.9,5L5.9,5L5.9,5z"/>
</g>
</svg>
