<?xml version="1.0" encoding="utf-8"?>
<!-- Generator: Adobe Illustrator 19.2.1, SVG Export Plug-In . SVG Version: 6.00 Build 0)  -->
<svg version="1.1" id="Layer_1" xmlns="http://www.w3.org/2000/svg" xmlns:xlink="http://www.w3.org/1999/xlink" x="0px" y="0px"
	 viewBox="0 0 16 16" enable-background="new 0 0 16 16" xml:space="preserve">
<g>
	<path d="M4,10.5c-0.8,0.5-1.6,0.7-2.4,0.4c-0.5-0.1-0.9-0.5-1.2-1C0.1,9.4,0,8.8,0,8.2c0-0.6,0.1-1.1,0.3-1.5C0.5,6.2,0.9,6,1.3,6
		c0.2,0,0.5,0.2,0.6,0.5C2,6.7,2,7,2,7.3C1.9,7.5,1.8,7.7,1.6,7.9c0.1-0.2,0.1-0.4,0-0.6C1.6,7,1.3,7,1.2,7.2C1,7.4,1,7.6,1.1,7.9
		c0.1,0.3,0.3,0.7,0.6,0.7c0.4,0,0.7-0.3,0.9-0.6c0.5-0.7,1-1.5,1.6-2.1C4.7,5.3,5.3,5,5.9,5l0,0l0,0C6.4,5,7,5.2,7.4,5.8
		C7.7,6.1,7.8,6.6,8,7c0.3-0.7,0.7-1.5,1.2-1.7c0.6-0.3,1.3-0.3,1.9,0c0.5,0.3,1,0.8,1.4,1.4c0.3,0.4,0.6,0.9,1,1.4
		c0.2,0.2,0.4,0.4,0.6,0.5c0.3,0.2,0.6,0,0.8-0.3c0.2-0.3,0.2-0.8,0-1.1C14.6,7,14.4,7,14.3,7.2c-0.1,0.2,0,0.4,0,0.6
		C14.2,7.6,14,7.4,14,7c0-0.4,0.2-0.8,0.4-0.9c0.5-0.3,1,0,1.3,0.6C16,7.3,16,7.9,16,8.6c-0.1,0.7-0.3,1.3-0.6,1.7
		c-0.5,0.5-1.1,0.7-1.7,0.7c-0.6,0-1.1-0.2-1.7-0.6C7.6,7.2,4,10.5,4,10.5z"/>
</g>
</svg>
