<?xml version="1.0" encoding="utf-8"?>
<!-- Generator: Adobe Illustrator 19.0.0, SVG Export Plug-In . SVG Version: 6.00 Build 0)  -->
<svg version="1.1" id="Layer_2" xmlns="http://www.w3.org/2000/svg" xmlns:xlink="http://www.w3.org/1999/xlink" x="0px" y="0px"
	 viewBox="0 0 16 16" style="enable-background:new 0 0 16 16;" xml:space="preserve">
<g>
	<path d="M4.3,4C3.9,3.7,3.3,3.7,2.9,4.2L0.2,7.4c-0.3,0.4-0.3,0.9,0,1.3l2.7,3.2c0.4,0.4,1,0.5,1.4,0.1c0.4-0.4,0.5-1,0.1-1.4
		L2.3,8l2.1-2.5C4.8,5,4.7,4.4,4.3,4z"/>
	<path d="M15.8,7.4l-2.7-3.2c-0.4-0.4-1-0.5-1.4-0.1c-0.4,0.4-0.5,1-0.1,1.4L13.7,8l-2.1,2.5c-0.4,0.4-0.3,1.1,0.1,1.4
		c0.4,0.4,1.1,0.3,1.4-0.1l2.7-3.2C16.1,8.3,16.1,7.7,15.8,7.4z"/>
	<path d="M9.6,2.2C9,2.1,8.5,2.4,8.3,2.9l-2.6,9.7c-0.1,0.5,0.2,1.1,0.7,1.2s1.1-0.2,1.2-0.7l2.6-9.7C10.4,2.9,10.1,2.3,9.6,2.2z"/>
</g>
</svg>
