<?xml version="1.0" encoding="utf-8"?>
<!-- Generator: Adobe Illustrator 19.0.0, SVG Export Plug-In . SVG Version: 6.00 Build 0)  -->
<svg version="1.1" id="Layer_1" xmlns="http://www.w3.org/2000/svg" xmlns:xlink="http://www.w3.org/1999/xlink" x="0px" y="0px"
	 viewBox="0 0 16 16" style="enable-background:new 0 0 16 16;" xml:space="preserve">
<g>
	<circle cx="11.5" cy="5.5" r="1.5"/>
	<path d="M14,1H2C0.9,1,0,1.9,0,3v10c0,1.1,0.9,2,2,2h12c1.1,0,2-0.9,2-2V3C16,1.9,15.1,1,14,1z M2,4c0-0.6,0.4-1,1-1h10
		c0.6,0,1,0.4,1,1v7.9l-3-3.2c-0.3-0.3-0.8-0.3-1.1,0L9,9.8L7.1,7.7C6.8,7.4,6.3,7.4,6,7.7L2,12V4z"/>
</g>
</svg>
