<?xml version="1.0" encoding="utf-8"?>
<!-- Generator: Adobe Illustrator 19.0.0, SVG Export Plug-In . SVG Version: 6.00 Build 0)  -->
<svg version="1.1" id="Layer_1" xmlns="http://www.w3.org/2000/svg" xmlns:xlink="http://www.w3.org/1999/xlink" x="0px" y="0px"
	 viewBox="0 0 16 16" style="enable-background:new 0 0 16 16;" xml:space="preserve">
<path id="XMLID_20_" d="M0,0v16h16V0H0z M8.3,11.9c0,1.5-0.9,2.1-2.1,2.1S4.3,13.4,4,12.7l0,0l0,0l0,0L5.2,12
	c0.2,0.4,0.4,0.7,0.9,0.7s0.8-0.2,0.8-0.9V7h1.4V11.9z M11.6,14c-1.3,0-2.2-0.6-2.6-1.5l1.2-0.7c0.3,0.5,0.7,0.9,1.4,0.9
	c0.6,0,1-0.3,1-0.7c0-0.5-0.4-0.7-1-0.9l-0.4-0.2c-1-0.4-1.7-1-1.7-2.1s0.8-1.9,2.1-1.9c0.9,0,1.6,0.3,2,1.1l-1.1,0.7
	c-0.2-0.4-0.5-0.6-0.9-0.6s-0.7,0.3-0.7,0.6c0,0.4,0.3,0.6,0.9,0.9l0.4,0.2c1.2,0.5,1.9,1,1.9,2.2C14,13.3,13,14,11.6,14z"/>
</svg>
