<?xml version="1.0" encoding="utf-8"?>
<!-- Generator: Adobe Illustrator 19.0.0, SVG Export Plug-In . SVG Version: 6.00 Build 0)  -->
<svg version="1.1" id="Layer_1" xmlns="http://www.w3.org/2000/svg" xmlns:xlink="http://www.w3.org/1999/xlink" x="0px" y="0px"
	 viewBox="0 0 16 16" style="enable-background:new 0 0 16 16;" xml:space="preserve">
<g id="XMLID_3_">
	<path id="XMLID_4_" d="M6.6,12.8V14h-1c-1.1,0-1.8-0.2-2.1-0.5S3,12.6,3,11.7v-1.4C3,9.7,2.8,9.2,2.6,9S2,8.6,1.4,8.6H1V7.4h0.4
		c0.6,0,1-0.1,1.2-0.4C2.8,6.8,3,6.3,3,5.7V4.3c0-0.9,0.2-1.6,0.5-1.9S4.6,2,5.6,2h1v1.2H5.8c-0.4,0-0.7,0.1-0.9,0.3S4.7,4,4.7,4.6
		V6c0,0.7-0.1,1.2-0.3,1.5S3.8,7.9,3.3,8c0.5,0.1,0.9,0.3,1.1,0.6S4.7,9.3,4.7,10v1.3c0,0.6,0.1,1,0.2,1.2s0.4,0.3,0.9,0.3H6.6z"/>
</g>
<g id="XMLID_1_">
	<path id="XMLID_2_" d="M10.2,12.8c0.5,0,0.8-0.1,0.9-0.3c0.1-0.2,0.2-0.6,0.2-1.2V10c0-0.7,0.1-1.1,0.3-1.4
		c0.2-0.3,0.6-0.5,1.1-0.6c-0.5-0.1-0.9-0.2-1.1-0.5S11.3,6.7,11.3,6V4.6c0-0.6,0-0.9-0.2-1.1c-0.2-0.2-0.5-0.3-0.9-0.3H9.4V2h1
		c1,0,1.8,0.1,2.1,0.4s0.5,1,0.5,1.9v1.4c0,0.6,0.2,1.1,0.4,1.3c0.2,0.3,0.6,0.4,1.2,0.4H15v1.2h-0.4c-0.6,0-1,0.2-1.2,0.4
		C13.2,9.2,13,9.7,13,10.3v1.4c0,0.9-0.2,1.5-0.5,1.8s-1,0.5-2.1,0.5h-1v-1.2H10.2z"/>
</g>
</svg>
