<?xml version="1.0" encoding="utf-8"?>
<!-- Generator: Adobe Illustrator 19.0.0, SVG Export Plug-In . SVG Version: 6.00 Build 0)  -->
<svg version="1.1" id="Layer_1" xmlns="http://www.w3.org/2000/svg" xmlns:xlink="http://www.w3.org/1999/xlink" x="0px" y="0px"
	 viewBox="0 0 16 16" style="enable-background:new 0 0 16 16;" xml:space="preserve">
<path d="M16,7.9C16,6.8,14.9,6,13,5c0.4-2,0-3.4-1-4S9.6,0.9,8,2.2C6.5,0.9,5,0.5,4,1.1c-1,0.6-1.3,2.1-1,4c0,0,0,0-0.1,0
	C1.1,5.8,0,6.8,0,8s1.1,2.2,3,2.9c-0.4,2,0,3.4,1,4c0.3,0.2,0.6,0.3,1,0.3c0.9,0,2-0.5,3-1.4c1.1,0.9,2.1,1.4,3,1.4
	c0.4,0,0.7-0.1,1-0.3c1-0.6,1.4-2.1,1-4.1C14.9,10.2,16,9.1,16,7.9z M3.5,9.2C2.3,8.7,1.8,8.1,1.8,8c0-0.2,0.5-0.7,1.7-1.2
	C3.7,7.2,3.8,7.6,4,8C3.8,8.4,3.6,8.8,3.5,9.2z M11.1,2.6c0.1,0.1,0.4,0.8,0.1,2.1c-0.4-0.1-0.8-0.1-1.2-0.2c-0.3-0.3-0.5-0.7-0.8-1
	C10.3,2.7,11,2.5,11.1,2.6z M4.9,2.6L4.9,2.6c0.4,0,1,0.2,1.9,0.9C6.5,3.8,6.2,4.2,6,4.5c-0.4,0-0.8,0.1-1.2,0.2
	C4.5,3.4,4.8,2.7,4.9,2.6z M4.9,13.4c-0.1-0.1-0.4-0.7-0.1-2.1c0.4,0.1,0.8,0.1,1.3,0.2c0.3,0.3,0.5,0.7,0.8,1
	C5.8,13.3,5,13.4,4.9,13.4z M6,8c0-1.1,0.9-2,2-2s2,0.9,2,2s-0.9,2-2,2S6,9.1,6,8z M11.1,13.4c-0.1,0.1-0.8,0-1.8-0.9
	c0.3-0.3,0.5-0.6,0.8-1c0.4,0,0.9-0.1,1.3-0.2C11.5,12.6,11.2,13.3,11.1,13.4z M12.5,9.2C12.4,8.8,12.2,8.4,12,8
	c0.2-0.4,0.3-0.8,0.5-1.1c1.3,0.5,1.7,1,1.7,1.1S13.8,8.7,12.5,9.2z"/>
</svg>
