<?xml version="1.0" encoding="utf-8"?>
<!-- Generator: Adobe Illustrator 19.0.0, SVG Export Plug-In . SVG Version: 6.00 Build 0)  -->
<svg version="1.1" id="Layer_1" xmlns="http://www.w3.org/2000/svg" xmlns:xlink="http://www.w3.org/1999/xlink" x="0px" y="0px"
	 viewBox="0 0 16 16" style="enable-background:new 0 0 16 16;" xml:space="preserve">
<g id="XMLID_2_">
	<path id="XMLID_3_" d="M4.3,2L3.9,1.1C3.3,1.5,2.8,1.9,2.3,2.4L3,3C3.4,2.6,3.9,2.3,4.3,2z"/>
	<path id="XMLID_18_" d="M0.9,8c0-0.1,0-0.2,0-0.3L0,7.6C0,7.7,0,7.9,0,8c0,0.5,0.1,1.1,0.2,1.6l0.9-0.2C1,8.9,0.9,8.5,0.9,8z"/>
	<path id="XMLID_22_" d="M1.9,4.4L1.1,3.9C0.8,4.5,0.5,5.1,0.3,5.7L1.2,6C1.4,5.4,1.6,4.9,1.9,4.4z"/>
	<path id="XMLID_23_" d="M7.6,0.9l0-0.9C6.9,0,6.3,0.2,5.6,0.3l0.3,0.9C6.5,1.1,7,1,7.6,0.9z"/>
	<path id="XMLID_24_" d="M14.5,5.3c0.2,0.5,0.4,1.1,0.5,1.7l0.9-0.1c-0.1-0.6-0.3-1.3-0.5-1.9L14.5,5.3z"/>
	<path id="XMLID_25_" d="M0.8,11.4c0.3,0.6,0.6,1.1,1.1,1.7l0.7-0.6C2.2,12,1.9,11.5,1.6,11L0.8,11.4z"/>
	<path id="XMLID_26_" d="M11.4,0.7c-0.6-0.3-1.2-0.5-1.9-0.6L9.3,1.1c0.6,0.1,1.1,0.3,1.6,0.5L11.4,0.7z"/>
	<path id="XMLID_27_" d="M14.8,9.7l0.9,0.2C15.9,9.3,16,8.7,16,8h-0.9C15.1,8.6,15,9.2,14.8,9.7z"/>
	<path id="XMLID_28_" d="M13.2,12.7l0.7,0.6c0.4-0.5,0.8-1,1.1-1.6l-0.8-0.4C14,11.8,13.6,12.3,13.2,12.7z"/>
	<path id="XMLID_29_" d="M3.2,14.4c0.5,0.4,1.1,0.7,1.7,1l0.4-0.9c-0.5-0.2-1-0.5-1.5-0.9L3.2,14.4z"/>
	<path id="XMLID_30_" d="M10.4,14.6l0.3,0.9c0.6-0.2,1.2-0.5,1.7-0.9l-0.5-0.8C11.4,14.2,10.9,14.4,10.4,14.6z"/>
	<path id="XMLID_31_" d="M8,15.1c-0.3,0-0.7,0-1-0.1l-0.1,0.9C7.2,16,7.7,16,8,16c0.3,0,0.5,0,0.8,0L8.7,15C8.5,15,8.3,15.1,8,15.1z
		"/>
	<circle id="XMLID_32_" cx="14" cy="2" r="2"/>
	<path id="XMLID_35_" d="M8,3C5.2,3,3,5.2,3,8c0,2.8,2.2,5,5,5s5-2.2,5-5C13,5.2,10.8,3,8,3z M9,9C7.9,9,7,8.1,7,7c0-1.1,0.9-2,2-2
		c1.1,0,2,0.9,2,2C11,8.1,10.1,9,9,9z"/>
</g>
</svg>
