<?xml version="1.0" encoding="utf-8"?>
<!-- Generator: Adobe Illustrator 19.0.0, SVG Export Plug-In . SVG Version: 6.00 Build 0)  -->
<svg version="1.1" id="Layer_1" xmlns="http://www.w3.org/2000/svg" xmlns:xlink="http://www.w3.org/1999/xlink" x="0px" y="0px"
	 viewBox="0 0 16 16" style="enable-background:new 0 0 16 16;" xml:space="preserve">
<path d="M14.8,3H1.2C0.5,3,0,3.5,0,4.2v7.7C0,12.5,0.5,13,1.2,13h13.7c0.6,0,1.2-0.5,1.2-1.2V4.2C16,3.5,15.5,3,14.8,3z M9,11l-2,0
	V8L5.5,9.9L4,8v3H2V5h2l1.5,2L7,5l2,0V11z M12,11.5L9.5,8H11V5h2v3h1.5L12,11.5L12,11.5z"/>
</svg>
