<?xml version="1.0" encoding="utf-8"?>
<!-- Generator: Adobe Illustrator 19.2.1, SVG Export Plug-In . SVG Version: 6.00 Build 0)  -->
<svg version="1.1" id="meteor" xmlns="http://www.w3.org/2000/svg" xmlns:xlink="http://www.w3.org/1999/xlink" x="0px" y="0px"
	 viewBox="0 0 16 16" style="enable-background:new 0 0 16 16;" xml:space="preserve">
<path id="path10_3_" d="M8,14.9c0,0,0.4,0.3,0.8-0.1c0.4-0.4,0.1-0.8,0.1-0.8L2,8L8,14.9z"/>
<path id="path12_1_" d="M11,14.9c0,0,0.4,0.3,0.8-0.1c0.4-0.4,0.1-0.8,0.1-0.8L1,4L11,14.9z"/>
<path id="path8_1_" d="M13,13.9c0,0,0.4,0.3,0.8-0.1c0.4-0.4,0.1-0.8,0.1-0.8L0,0L13,13.9z"/>
<path id="path10_1_" d="M14,11.9c0,0,0.4,0.3,0.8-0.1c0.4-0.4,0.1-0.8,0.1-0.8L4,1L14,11.9z"/>
<path id="path10_2_" d="M14,8.9c0,0,0.4,0.3,0.8-0.1c0.4-0.4,0.1-0.8,0.1-0.8L8,2L14,8.9z"/>
</svg>
