<?xml version="1.0" encoding="utf-8"?>
<!-- Generator: Adobe Illustrator 19.0.0, SVG Export Plug-In . SVG Version: 6.00 Build 0)  -->
<svg version="1.1" id="Layer_4" xmlns="http://www.w3.org/2000/svg" xmlns:xlink="http://www.w3.org/1999/xlink" x="0px" y="0px"
	 viewBox="0 0 16 16" style="enable-background:new 0 0 16 16;" xml:space="preserve">
<style type="text/css">
	.st0{fill-rule:evenodd;clip-rule:evenodd;}
</style>
<g>
	<path class="st0" d="M12,4c0,0,0.1-3.5-2-4C8.3,0.1,7,1.1,7,1.1v0C4.1,0.7,2,2,2,2S1.3,2.4,1,3.1C0.1,5,0,8,0,8v7c0,0.6,0.4,1,1,1
		s1-0.4,1-1v-4c0,0,0.5-1.9,2-2s2.5-0.7,3-1l1,2l3-2C11,8,12.1,6.8,12,4z M4,6C3.4,6,3,5.6,3,5s0.4-1,1-1s1,0.4,1,1S4.6,6,4,6z"/>
	<path class="st0" d="M5,16h1v-1h2v-3H5V16z M6,13h1v1H6V13z"/>
	<polygon class="st0" points="12,12 10,12 10,11 9,11 9,15 10,15 10,13 11,13 11,15 12,15 	"/>
	<path class="st0" d="M13,12v4h1v-1h2v-3H13z M15,14h-1v-1h1V14z"/>
</g>
</svg>
