<?xml version="1.0" encoding="utf-8"?>
<!-- Generator: Adobe Illustrator 19.0.0, SVG Export Plug-In . SVG Version: 6.00 Build 0)  -->
<svg version="1.1" id="Layer_1" xmlns="http://www.w3.org/2000/svg" xmlns:xlink="http://www.w3.org/1999/xlink" x="0px" y="0px"
	 viewBox="0 0 16 16" style="enable-background:new 0 0 16 16;" xml:space="preserve">
<path id="XMLID_17_" d="M11,1H1V0h10V1z M4,2H1v1h3V2z M13,2H5v1h8V2z M3,4H1v1h2V4z M6,4H4v1h2V4z M15,4h-5v1h5V4z M6,6H1v1h5V6z
	 M15,6h-5v1h5V6z M5,8H1v1h4V8z M9,8H6v1h3V8z M13,8h-3v1h3V8z M2,10H1v1h1V10z M11,10H3v1h8V10z M6,12H1v1h5V12z M3,14H1v1h2V14z
	 M6,14H4v1h2V14z"/>
</svg>
