<?xml version="1.0" encoding="utf-8"?>
<!-- Generator: Adobe Illustrator 19.0.0, SVG Export Plug-In . SVG Version: 6.00 Build 0)  -->
<svg version="1.1" id="Layer_1" xmlns="http://www.w3.org/2000/svg" xmlns:xlink="http://www.w3.org/1999/xlink" x="0px" y="0px"
	 viewBox="0 0 16 16" style="enable-background:new 0 0 16 16;" xml:space="preserve">
<g id="XMLID_2_">
	<path id="XMLID_9_" d="M0,0v16h16V0H0z M4.3,9.4c-0.3,0-0.5,0-0.7,0v3.5c0,0.1,0,0.1-0.1,0.1H2.1C2,13,2,13,2,12.9V3.2h0
		C2,3.1,2.1,3,2.2,3c0.6,0,1.4,0,2.3,0C7,3,8,4.4,8,6.1C8,8.4,6.3,9.4,4.3,9.4z M11.1,13c-0.9,0-1.6-0.2-2-0.4C9,12.5,9,12.5,9,12.4
		v-1.5c0-0.1,0-0.1,0.1-0.1c0.6,0.4,1.3,0.6,2,0.6c0.8,0,1.1-0.3,1.1-0.8c0-0.4-0.2-0.7-1.2-1.2C9.6,8.8,9,8.1,9,7
		c0-1.3,1-2.4,2.8-2.4c0.9,0,1.5,0.1,1.8,0.3c0.1,0,0.1,0.1,0.1,0.2v1.4c0,0.1,0,0.1-0.2,0.1c-0.4-0.3-1.1-0.4-1.7-0.4
		c-0.8,0-1.1,0.4-1.1,0.7c0,0.4,0.2,0.6,1.2,1.2c1.6,0.8,2.1,1.5,2.1,2.6C14,12.1,12.8,13,11.1,13z"/>
	<path id="XMLID_11_" d="M4.5,4.4c-0.4,0-0.7,0-0.9,0V8C3.8,8,4,8,4.3,8c1.1,0,2-0.4,2-1.8C6.4,5,5.7,4.4,4.5,4.4z"/>
</g>
</svg>
