<?xml version="1.0" encoding="utf-8"?>
<!-- Generator: Adobe Illustrator 19.1.0, SVG Export Plug-In . SVG Version: 6.00 Build 0)  -->
<svg version="1.1" id="Layer_1_copy" xmlns="http://www.w3.org/2000/svg" xmlns:xlink="http://www.w3.org/1999/xlink" x="0px"
	 y="0px" viewBox="0 0 16 16" style="enable-background:new 0 0 16 16;" xml:space="preserve">
<g>
	<path d="M5,14c0,1.7,1.3,2,3,2s3-0.3,3-2v-2H8v-1h6c1.6,0,2-1.4,2-3c0-1.7-0.4-3-2-3h-2v3.5C12,8.8,11.8,9,11.5,9H5V14z M9,13
		c0.6,0,1,0.4,1,1c0,0.6-0.4,1-1,1s-1-0.4-1-1C8,13.4,8.4,13,9,13z"/>
	<path d="M11,2c0-1.7-1.3-2-3-2S5,0.3,5,2v2h3v1H2C0.4,5,0,6.3,0,8c0,1.6,0.4,3,2,3h2V8.5C4,8.2,4.2,8,4.5,8H11V2z M7,3
		C6.4,3,6,2.6,6,2c0-0.6,0.4-1,1-1s1,0.4,1,1C8,2.6,7.6,3,7,3z"/>
</g>
</svg>
