<?xml version="1.0" encoding="utf-8"?>
<!-- Generator: Adobe Illustrator 19.0.0, SVG Export Plug-In . SVG Version: 6.00 Build 0)  -->
<svg version="1.1" id="Layer_1" xmlns="http://www.w3.org/2000/svg" xmlns:xlink="http://www.w3.org/1999/xlink" x="0px" y="0px"
	 viewBox="0 0 16 16" style="enable-background:new 0 0 16 16;" xml:space="preserve">
<path d="M16,7L16,7c0-0.6-0.4-1-1-1h-2v2v4H9v-2H7v2H3V8V6H1C0.4,6,0,6.4,0,7v0c0,0.6,0.4,1,1,1h0v4h0c-0.6,0-1,0.4-1,1v0
	c0,0.6,0.4,1,1,1h0v0c0,0.6,0.4,1,1,1h0c0.6,0,1-0.4,1-1v0h4v0c0,0.6,0.4,1,1,1h0c0.6,0,1-0.4,1-1v0h4v0c0,0.6,0.4,1,1,1h0
	c0.6,0,1-0.4,1-1v0h0c0.6,0,1-0.4,1-1v0c0-0.6-0.4-1-1-1h0V8h0C15.6,8,16,7.6,16,7z"/>
<path id="XMLID_7_" d="M7,1L4,4v5h8V1H7z M10,7L7,4l1-1h2V7z"/>
</svg>
