<?xml version="1.0" encoding="utf-8"?>
<!-- Generator: Adobe Illustrator 23.0.3, SVG Export Plug-In . SVG Version: 6.00 Build 0)  -->
<svg version="1.1" id="Layer_3" xmlns="http://www.w3.org/2000/svg" xmlns:xlink="http://www.w3.org/1999/xlink" x="0px" y="0px"
	 viewBox="0 0 16 16" style="enable-background:new 0 0 16 16;" xml:space="preserve">
<path d="M12.59,0H3.41c-0.26,0-0.52,0.11-0.7,0.29L0.29,2.71C0.11,2.89,0,3.15,0,3.41v9.17c0,0.27,0.11,0.52,0.29,0.71L2.7,15.7
	C2.89,15.89,3.15,16,3.41,16h9.17c0.27,0,0.52-0.11,0.71-0.29l2.41-2.41c0.19-0.19,0.29-0.44,0.29-0.71V3.41
	c0-0.27-0.11-0.52-0.29-0.71l-2.41-2.41C13.11,0.11,12.85,0,12.59,0z M13.71,12.29L12.3,13.7c-0.19,0.19-0.45,0.3-0.71,0.3H4.41
	c-0.27,0-0.52-0.11-0.71-0.29L2.29,12.3C2.11,12.11,2,11.85,2,11.59V4.41C2,4.14,2.11,3.89,2.29,3.7L3.7,2.29
	C3.89,2.11,4.15,2,4.41,2h7.17c0.27,0,0.52,0.11,0.71,0.29L13.7,3.7C13.89,3.89,14,4.15,14,4.41v7.17
	C14,11.85,13.89,12.11,13.71,12.29z M13,11c0,0.55-0.45,1-1,1H4c-0.55,0-1-0.45-1-1s0.45-1,1-1h8C12.55,10,13,10.45,13,11z M3,8V7.5
	C3,6.12,4.12,5,5.5,5S8,6.12,8,7.5V8H6V7.5C6,7.22,5.78,7,5.5,7S5,7.22,5,7.5V8H3z M10,8c-0.37,0-0.72-0.2-0.9-0.55
	C8.86,6.95,9.06,6.35,9.55,6.11l2-1c0.49-0.25,1.09-0.05,1.34,0.45c0.25,0.49,0.05,1.09-0.45,1.34l-2,1C10.3,7.97,10.15,8,10,8z"/>
</svg>
