<?xml version="1.0" encoding="utf-8"?>
<!-- Generator: Adobe Illustrator 19.0.0, SVG Export Plug-In . SVG Version: 6.00 Build 0)  -->
<svg version="1.1" id="Layer_1" xmlns="http://www.w3.org/2000/svg" xmlns:xlink="http://www.w3.org/1999/xlink" x="0px" y="0px"
	 viewBox="0 0 16 16" style="enable-background:new 0 0 16 16;" xml:space="preserve">
<style type="text/css">
	.st0{fill-rule:evenodd;clip-rule:evenodd;}
</style>
<path id="XMLID_4_" class="st0" d="M10.6,7.1c-1.4,0.5-2.5,0.5-3,0.3C7.1,7.2,6.8,6.9,6.7,6.7c0-0.1-0.1-0.2,0-0.3
	c0.1,0,0.1,0,0.2,0.1C7,6.7,7.5,7.1,8.5,6.9c2.6-0.3,4.1-2.3,3.6-3.4c-0.3-0.8-2.3-1.1-4.8,0.1c-3,1.5-3.2,2.7-3.2,3.2
	c-0.1,1.3,1.6,2,2.5,2.9c0,0,0,0,0.1,0.1C7,9.8,7.3,9.8,7.9,9.8c1.5,0,2.3,0.9,2.2,1.8c0,0.7-0.6,1-0.8,1c-0.1,0-0.1,0-0.1,0
	c0,0,0-0.1,0.1-0.1c0.1-0.1,0.4-0.3,0.4-0.6c0.1-0.4-0.2-1.2-1.6-1.4c-0.5-0.1-0.9,0-1.2,0.1c0.2,0.5,0.3,1.6-0.3,2.5
	C6.2,13.7,5.1,14.3,4,14c-0.3-0.1-0.9-0.8-0.4-1.8c0.4-0.9,2.2-1.8,2.5-2v0C5.2,9.5,3.2,8.5,2.9,7.1C2.8,6.7,3,5.7,4.3,4.5
	c1-1,2.5-1.7,3.8-2.2C10.3,1.5,12.7,2,13,3.4C13.4,4.8,12.2,6.5,10.6,7.1z M6.3,10.7L6.3,10.7c0,0-0.8,0.4-1.4,1
	c-0.5,0.6-0.7,1.3-0.4,1.5c0.3,0.2,0.9,0,1.4-0.5c0.2-0.2,0.3-0.3,0.4-0.5c0,0,0-0.1,0.1-0.1c0,0,0-0.1,0-0.1
	C6.5,11.5,6.5,11.1,6.3,10.7C6.4,10.7,6.4,10.7,6.3,10.7z"/>
</svg>
