<?xml version="1.0" encoding="utf-8"?>
<!-- Generator: Adobe Illustrator 19.0.0, SVG Export Plug-In . SVG Version: 6.00 Build 0)  -->
<svg version="1.1" id="Layer_1" xmlns="http://www.w3.org/2000/svg" xmlns:xlink="http://www.w3.org/1999/xlink" x="0px" y="0px"
	 viewBox="0 0 16 16" style="enable-background:new 0 0 16 16;" xml:space="preserve">
<path id="XMLID_4_" d="M5,5H4V3V0H2L0,2l1,2L0,5l8,11L5,5z M8,5c0.3,0,0.5,0.2,0.5,0.5C8.5,5.8,8.3,6,8,6S7.5,5.8,7.5,5.5
	C7.5,5.2,7.7,5,8,5z M8,8c0.3,0,0.5,0.2,0.5,0.5S8.3,9,8,9S7.5,8.8,7.5,8.5S7.7,8,8,8z M8,11c0.3,0,0.5,0.2,0.5,0.5S8.3,12,8,12
	s-0.5-0.2-0.5-0.5S7.7,11,8,11z M11,1v3L9,3H7L5,4V1l2,1h2L11,1z M8,16l8-11l-1-1l1-2l-2-2l-2,0v3v2h-1L8,16z"/>
</svg>
