<?xml version="1.0" encoding="utf-8"?>
<!-- Generator: Adobe Illustrator 19.0.0, SVG Export Plug-In . SVG Version: 6.00 Build 0)  -->
<svg version="1.1" id="Layer_2" xmlns="http://www.w3.org/2000/svg" xmlns:xlink="http://www.w3.org/1999/xlink" x="0px" y="0px"
	 viewBox="-3 5 16 16" style="enable-background:new -3 5 16 16;" xml:space="preserve">
<path d="M11,6H-1c-1.1,0-2,0.9-2,2v10c0,1.1,0.9,2,2,2h12c1.1,0,2-0.9,2-2V8C13,6.9,12.1,6,11,6z M3.6,11.8l-3,2
	C0.4,13.9,0.2,14,0,14c-0.3,0-0.6-0.2-0.8-0.4c-0.3-0.5-0.2-1.1,0.2-1.4L1.2,11l-1.8-1.2C-1,9.5-1.1,8.9-0.8,8.4
	C-0.5,8,0.1,7.9,0.6,8.2l3,2C3.8,10.4,4,10.7,4,11S3.8,11.6,3.6,11.8z M8,15H5c-0.6,0-1-0.4-1-1s0.4-1,1-1h3c0.6,0,1,0.4,1,1
	S8.6,15,8,15z"/>
</svg>
