<?xml version="1.0" encoding="utf-8"?>
<!-- Generator: Adobe Illustrator 19.2.1, SVG Export Plug-In . SVG Version: 6.00 Build 0)  -->
<svg version="1.1" id="Layer_2" xmlns="http://www.w3.org/2000/svg" xmlns:xlink="http://www.w3.org/1999/xlink" x="0px" y="0px"
	 viewBox="0 0 16 16" style="enable-background:new 0 0 16 16;" xml:space="preserve">
<path d="M14,1H2C0.9,1,0,1.9,0,3v10c0,1.1,0.9,2,2,2h12c1.1,0,2-0.9,2-2V3C16,1.9,15.1,1,14,1z M6.6,6.8l-3,2C3.4,8.9,3.2,9,3,9
	C2.7,9,2.4,8.8,2.2,8.6C1.9,8.1,2,7.5,2.4,7.2L4.2,6L2.4,4.8C2,4.5,1.9,3.9,2.2,3.4C2.5,3,3.1,2.9,3.6,3.2l3,2C6.8,5.4,7,5.7,7,6
	S6.8,6.6,6.6,6.8z M11,9H8C7.4,9,7,8.6,7,8s0.4-1,1-1h3c0.6,0,1,0.4,1,1S11.6,9,11,9z"/>
</svg>
