<?xml version="1.0" encoding="utf-8"?>
<!-- Generator: Adobe Illustrator 19.0.0, SVG Export Plug-In . SVG Version: 6.00 Build 0)  -->
<svg version="1.1" id="Layer_1" xmlns="http://www.w3.org/2000/svg" xmlns:xlink="http://www.w3.org/1999/xlink" x="0px" y="0px"
	 viewBox="0 0 16 16" style="enable-background:new 0 0 16 16;" xml:space="preserve">
<path id="XMLID_5_" d="M13,2h-3H6H3C2.4,2,2,2.4,2,3v1h0v1.5C2,5.8,2.2,6,2.5,6H3l1-2h2v8.1C6,12.6,5.6,13,5.1,13H4.5
	C4.2,13,4,13.2,4,13.5C4,13.8,4.2,14,4.5,14H6h4h1.5c0.3,0,0.5-0.2,0.5-0.5c0-0.3-0.2-0.5-0.5-0.5H11c-0.6,0-1-0.4-1-1V4h2l1,2h0.5
	C13.8,6,14,5.8,14,5.5V4V3C14,2.4,13.6,2,13,2z"/>
</svg>
