<?xml version="1.0" encoding="utf-8"?>
<!-- Generator: Adobe Illustrator 19.0.0, SVG Export Plug-In . SVG Version: 6.00 Build 0)  -->
<svg version="1.1" id="Layer_1" xmlns="http://www.w3.org/2000/svg" xmlns:xlink="http://www.w3.org/1999/xlink" x="0px" y="0px"
	 viewBox="0 0 16 16" style="enable-background:new 0 0 16 16;" xml:space="preserve">
<path id="XMLID_5_" d="M14,2h-4H6H2v2l0,0v1.5C2,5.8,2.2,6,2.5,6H3l1-2h2v9H4.5C4.2,13,4,13.2,4,13.5S4.2,14,4.5,14H6h4h1.5
	c0.3,0,0.5-0.2,0.5-0.5S11.8,13,11.5,13H10V4h2l1,2h0.5C13.8,6,14,5.8,14,5.5V4V2z"/>
</svg>
