<?xml version="1.0" encoding="utf-8"?>
<!-- Generator: Adobe Illustrator 19.0.0, SVG Export Plug-In . SVG Version: 6.00 Build 0)  -->
<svg version="1.1" id="Layer_1" xmlns="http://www.w3.org/2000/svg" xmlns:xlink="http://www.w3.org/1999/xlink" x="0px" y="0px"
	 viewBox="0 0 16 16" style="enable-background:new 0 0 16 16;" xml:space="preserve">
<rect id="XMLID_6_" x="2" y="5" width="2" height="6"/>
<rect id="XMLID_5_" x="12" y="5" width="2" height="6"/>
<rect id="XMLID_9_" x="5" y="2" width="6" height="2"/>
<rect id="XMLID_7_" x="5" y="12" width="6" height="2"/>
<path id="XMLID_13_" d="M1,11v4h4v-4H1z M4,14H2v-2h2V14z"/>
<path id="XMLID_4_" d="M1,1v4h4V1H1z M4,4H2V2h2V4z"/>
<path id="XMLID_14_" d="M11,1v4h4V1H11z M14,4h-2V2h2V4z"/>
<path id="XMLID_17_" d="M11,11v4h4v-4H11z M14,14h-2v-2h2V14z"/>
</svg>
